<?xml version="1.0"?>
<svg xmlns="http://www.w3.org/2000/svg" xmlns:xlink="http://www.w3.org/1999/xlink" xmlns:svgjs="http://svgjs.com/svgjs" version="1.1" width="512" height="512" x="0" y="0" viewBox="0 0 512 512" style="enable-background:new 0 0 512 512" xml:space="preserve" class=""><g><g xmlns="http://www.w3.org/2000/svg"><path d="m312.644 100.223-38.523 46.265c27.14 4.476 50.992 18.825 67.728 39.229l20.823-56.47c-14.718-12.407-31.612-22.307-50.028-29.024z" fill="#ffffff" data-original="#000000" style="" class=""/><path d="m170.151 185.717c16.736-20.405 40.588-34.754 67.728-39.229l-38.523-46.265c-18.416 6.717-35.31 16.618-50.028 29.024z" fill="#ffffff" data-original="#000000" style="" class=""/><path d="m145 256c0-13.722 2.51-26.867 7.083-39.01l-59.319 10.187c-1.648 9.363-2.514 18.993-2.514 28.823s.865 19.459 2.514 28.823l59.319 10.187c-4.573-12.143-7.083-25.288-7.083-39.01z" fill="#ffffff" data-original="#000000" style="" class=""/><path d="m367 256c0 13.722-2.51 26.867-7.083 39.01l59.319-10.187c1.648-9.363 2.514-18.993 2.514-28.823s-.865-19.459-2.514-28.823l-59.319-10.187c4.573 12.143 7.083 25.288 7.083 39.01z" fill="#ffffff" data-original="#000000" style="" class=""/><path d="m256 175c-44.663 0-81 36.336-81 81s36.337 81 81 81 81-36.336 81-81-36.337-81-81-81zm-28.461 130.674-21.213-21.213 21.213-21.213 21.213 21.213zm0-56.922-21.213-21.213 21.213-21.213 21.213 21.213zm56.922 56.922-21.213-21.213 21.213-21.213 21.213 21.213zm0-56.922-21.213-21.213 21.213-21.213 21.213 21.213z" fill="#ffffff" data-original="#000000" style="" class=""/><path d="m256 0c-141.38 0-256 114.62-256 256s114.62 256 256 256 256-114.62 256-256-114.62-256-256-256zm0 451.75c-107.94 0-195.75-87.81-195.75-195.75s87.81-195.75 195.75-195.75 195.75 87.81 195.75 195.75-87.81 195.75-195.75 195.75z" fill="#ffffff" data-original="#000000" style="" class=""/><path d="m237.879 365.513c-27.14-4.476-50.992-18.825-67.728-39.229l-20.823 56.47c14.718 12.406 31.612 22.307 50.028 29.024z" fill="#ffffff" data-original="#000000" style="" class=""/><path d="m341.849 326.283c-16.736 20.405-40.588 34.754-67.728 39.229l38.523 46.265c18.416-6.717 35.31-16.618 50.028-29.024z" fill="#ffffff" data-original="#000000" style="" class=""/></g></g></svg>
